<?xml version="1.0" encoding="utf-8"?>
<!-- Generator: Adobe Illustrator 25.2.0, SVG Export Plug-In . SVG Version: 6.00 Build 0)  -->
<svg version="1.1" id="Layer_1" xmlns="http://www.w3.org/2000/svg" xmlns:xlink="http://www.w3.org/1999/xlink" x="0px" y="0px"
	 viewBox="0 0 24 24" style="enable-background:new 0 0 24 24;" xml:space="preserve">
<style type="text/css">
	.st0{fill:#ED1C24;}
</style>
<path class="st0" d="M20.9,17.2l-2.7-4.7c0.6-1,0.8-2.2,0.8-3.3c0-1.9-0.7-3.6-2.1-4.9C15.6,3,13.9,2.2,12,2.2S8.4,3,7.1,4.3
	C5.7,5.6,5,7.4,5,9.2c0,1.2,0.3,2.3,0.8,3.3l-2.7,4.7C3,17.4,3,17.6,3,17.8c0,0.2,0,0.3,0.1,0.5c0.1,0.2,0.2,0.3,0.4,0.4
	c0.2,0.1,0.3,0.1,0.5,0.1h2.9l1.5,2.5c0,0.1,0.1,0.2,0.2,0.2c0.2,0.2,0.4,0.3,0.7,0.3h0.1c0.2,0,0.3-0.1,0.4-0.2
	c0.1-0.1,0.2-0.2,0.3-0.3l1.9-3.3l1.9,3.4c0.1,0.1,0.2,0.2,0.3,0.3c0.1,0.1,0.3,0.1,0.4,0.2h0.1c0.3,0,0.5-0.1,0.7-0.3
	c0.1-0.1,0.1-0.1,0.2-0.2l1.5-2.5H20c0.2,0,0.3,0,0.5-0.1c0.2-0.1,0.3-0.2,0.4-0.4c0.1-0.2,0.1-0.3,0.1-0.5S21,17.4,20.9,17.2
	L20.9,17.2z M9.2,18.8l-0.9-1.5c-0.1-0.1-0.2-0.3-0.4-0.4c-0.1-0.1-0.3-0.1-0.5-0.1H5.7l1.4-2.5c1,0.9,2.2,1.6,3.6,1.8L9.2,18.8z
	 M12,14.2c-1,0-2-0.3-2.8-0.8c-0.8-0.5-1.5-1.3-1.8-2.2C7,10.2,6.9,9.2,7.1,8.3c0.2-1,0.7-1.9,1.4-2.6C9.2,5,10.1,4.5,11,4.3
	c1-0.2,2-0.1,2.9,0.3c0.9,0.4,1.7,1,2.2,1.8C16.7,7.3,17,8.3,17,9.2c0,1.3-0.5,2.6-1.5,3.5C14.6,13.7,13.3,14.2,12,14.2L12,14.2z
	 M16.5,16.8c-0.2,0-0.3,0-0.5,0.1c-0.1,0.1-0.3,0.2-0.4,0.4l-0.9,1.5l-1.5-2.7c1.3-0.3,2.6-0.9,3.6-1.8l1.4,2.5L16.5,16.8z"/>
</svg>
