<?xml version="1.0" encoding="utf-8"?>
<!-- Generator: Adobe Illustrator 25.2.0, SVG Export Plug-In . SVG Version: 6.00 Build 0)  -->
<svg version="1.1" id="Layer_1" xmlns="http://www.w3.org/2000/svg" xmlns:xlink="http://www.w3.org/1999/xlink" x="0px" y="0px"
	 viewBox="0 0 24 24" style="enable-background:new 0 0 24 24;" xml:space="preserve">
<style type="text/css">
	.st0{fill:#ED1C24;}
</style>
<path class="st0" d="M19,2H5C3.3,2,2,3.3,2,5v14c0,1.7,1.3,3,3,3h14c1.7,0,3-1.3,3-3V5C22,3.3,20.7,2,19,2z M16.1,4l-4,4H7.9l4-4
	H16.1z M4,5c0-0.6,0.4-1,1-1h4.1l-4,4H4V5z M20,19c0,0.6-0.4,1-1,1H5c-0.6,0-1-0.4-1-1v-9h16V19z M20,8h-5.1l4-4H19c0.6,0,1,0.4,1,1
	V8z"/>
</svg>
