<?xml version="1.0" encoding="utf-8"?>
<!-- Generator: Adobe Illustrator 25.2.0, SVG Export Plug-In . SVG Version: 6.00 Build 0)  -->
<svg version="1.1" id="Layer_1" xmlns="http://www.w3.org/2000/svg" xmlns:xlink="http://www.w3.org/1999/xlink" x="0px" y="0px"
	 viewBox="0 0 24 24" style="enable-background:new 0 0 24 24;" xml:space="preserve">
<style type="text/css">
	.st0{fill:#ED1C24;}
</style>
<path class="st0" d="M20.6,19.2c0.6-0.8,1.1-1.8,1.3-2.8s0.2-2.1-0.1-3.1c-0.3-1-0.8-2-1.4-2.8c-0.7-0.8-1.5-1.4-2.5-1.9
	c-0.2-1.2-0.7-2.3-1.4-3.3c-0.7-1-1.6-1.8-2.7-2.4C12.7,2.4,11.5,2,10.3,2C9.1,2,7.9,2.2,6.7,2.7C5.6,3.2,4.7,3.9,3.9,4.8
	C3.1,5.8,2.5,6.9,2.2,8c-0.3,1.2-0.3,2.4-0.1,3.6c0.3,1.2,0.8,2.3,1.5,3.3l-1.4,1.4c-0.1,0.1-0.2,0.3-0.3,0.5c0,0.2,0,0.4,0.1,0.6
	c0.1,0.2,0.2,0.3,0.4,0.4C2.6,17.9,2.8,18,3,18h5.7c0.6,1.2,1.5,2.2,2.6,2.9c1.1,0.7,2.4,1.1,3.7,1.1h6c0.2,0,0.4-0.1,0.6-0.2
	c0.2-0.1,0.3-0.3,0.4-0.4C22,21.2,22,21,22,20.8c0-0.2-0.1-0.4-0.3-0.5L20.6,19.2z M8,15c0,0.3,0,0.7,0.1,1H5.4l0.4-0.3
	c0.1-0.1,0.2-0.2,0.2-0.3c0.1-0.1,0.1-0.3,0.1-0.4s0-0.3-0.1-0.4c-0.1-0.1-0.1-0.2-0.2-0.3c-0.6-0.6-1-1.2-1.3-1.9
	C4.2,11.6,4,10.8,4,10c0-1.6,0.6-3.1,1.8-4.2S8.4,4,10,4c1.2,0,2.5,0.4,3.5,1.1c1,0.7,1.8,1.7,2.2,2.9c-0.2,0-0.4,0-0.6,0
	c-1.9,0-3.6,0.7-4.9,2.1C8.7,11.4,8,13.1,8,15z M18.5,20L18.5,20L15,20c-1.2,0-2.3-0.4-3.2-1.1c-0.9-0.7-1.5-1.8-1.7-2.9
	c-0.2-1.1,0-2.3,0.5-3.3c0.5-1,1.4-1.8,2.5-2.3c1.1-0.4,2.3-0.5,3.4-0.2c1.1,0.3,2.1,1,2.7,2c0.6,1,0.9,2.1,0.8,3.3
	c-0.1,1.2-0.6,2.2-1.4,3c-0.2,0.2-0.3,0.4-0.3,0.7c0,0.1,0,0.3,0.1,0.4C18.4,19.8,18.4,19.9,18.5,20L18.5,20z"/>
</svg>
