<?xml version="1.0" encoding="utf-8"?>
<!-- Generator: Adobe Illustrator 25.2.0, SVG Export Plug-In . SVG Version: 6.00 Build 0)  -->
<svg version="1.1" id="Layer_1" xmlns="http://www.w3.org/2000/svg" xmlns:xlink="http://www.w3.org/1999/xlink" x="0px" y="0px"
	 viewBox="0 0 24 24" style="enable-background:new 0 0 24 24;" xml:space="preserve">
<style type="text/css">
	.st0{fill:#ED1C24;}
</style>
<path class="st0" d="M21,2c-0.3,0-0.5,0.1-0.7,0.3C20.1,2.5,20,2.7,20,3v2h-2V3c0-0.3-0.1-0.5-0.3-0.7C17.5,2.1,17.3,2,17,2
	s-0.5,0.1-0.7,0.3C16.1,2.5,16,2.7,16,3v1H8V3c0-0.3-0.1-0.5-0.3-0.7C7.5,2.1,7.3,2,7,2S6.5,2.1,6.3,2.3C6.1,2.5,6,2.7,6,3v2H4V3
	c0-0.3-0.1-0.5-0.3-0.7C3.5,2.1,3.3,2,3,2S2.5,2.1,2.3,2.3C2.1,2.5,2,2.7,2,3v18c0,0.3,0.1,0.5,0.3,0.7C2.5,21.9,2.7,22,3,22
	s0.5-0.1,0.7-0.3C3.9,21.5,4,21.3,4,21v-2h2v2c0,0.3,0.1,0.5,0.3,0.7C6.5,21.9,6.7,22,7,22s0.5-0.1,0.7-0.3C7.9,21.5,8,21.3,8,21v-1
	h8v1c0,0.3,0.1,0.5,0.3,0.7S16.7,22,17,22s0.5-0.1,0.7-0.3S18,21.3,18,21v-2h2v2c0,0.3,0.1,0.5,0.3,0.7S20.7,22,21,22
	s0.5-0.1,0.7-0.3S22,21.3,22,21V3c0-0.3-0.1-0.5-0.3-0.7C21.5,2.1,21.3,2,21,2L21,2z M6,17H4v-2h2V17z M6,13H4v-2h2V13z M6,9H4V7h2
	V9z M16,18H8v-5h8V18z M16,11H8V6h8V11z M20,17h-2v-2h2V17z M20,13h-2v-2h2V13z M20,9h-2V7h2V9z"/>
</svg>
