<?xml version="1.0" encoding="utf-8"?>
<!-- Generator: Adobe Illustrator 25.2.0, SVG Export Plug-In . SVG Version: 6.00 Build 0)  -->
<svg version="1.1" id="Layer_1" xmlns="http://www.w3.org/2000/svg" xmlns:xlink="http://www.w3.org/1999/xlink" x="0px" y="0px"
	 viewBox="0 0 24 24" style="enable-background:new 0 0 24 24;" xml:space="preserve">
<style type="text/css">
	.st0{fill:#ED1C24;}
</style>
<path class="st0" d="M6,13H2c-0.3,0-0.5,0.1-0.7,0.3C1.1,13.5,1,13.7,1,14v8c0,0.3,0.1,0.5,0.3,0.7C1.5,22.9,1.7,23,2,23h4
	c0.3,0,0.5-0.1,0.7-0.3C6.9,22.5,7,22.3,7,22v-8c0-0.3-0.1-0.5-0.3-0.7C6.5,13.1,6.3,13,6,13z M5,21H3v-6h2V21z M22,9h-4
	c-0.3,0-0.5,0.1-0.7,0.3C17.1,9.5,17,9.7,17,10v12c0,0.3,0.1,0.5,0.3,0.7S17.7,23,18,23h4c0.3,0,0.5-0.1,0.7-0.3S23,22.3,23,22V10
	c0-0.3-0.1-0.5-0.3-0.7C22.5,9.1,22.3,9,22,9z M21,21h-2V11h2V21z M14,1h-4C9.7,1,9.5,1.1,9.3,1.3C9.1,1.5,9,1.7,9,2v20
	c0,0.3,0.1,0.5,0.3,0.7C9.5,22.9,9.7,23,10,23h4c0.3,0,0.5-0.1,0.7-0.3S15,22.3,15,22V2c0-0.3-0.1-0.5-0.3-0.7C14.5,1.1,14.3,1,14,1
	z M13,21h-2V3h2V21z"/>
</svg>
