<?xml version="1.0" encoding="utf-8"?>
<!-- Generator: Adobe Illustrator 25.2.0, SVG Export Plug-In . SVG Version: 6.00 Build 0)  -->
<svg version="1.1" id="Layer_1" xmlns="http://www.w3.org/2000/svg" xmlns:xlink="http://www.w3.org/1999/xlink" x="0px" y="0px"
	 viewBox="0 0 24 24" style="enable-background:new 0 0 24 24;" xml:space="preserve">
<style type="text/css">
	.st0{fill:#ED1C24;}
</style>
<path class="st0" d="M22,10.1C22.1,9.6,21.7,9,21.2,9l-5.7-0.8L12.9,3c-0.1-0.2-0.2-0.3-0.4-0.4C12,2.3,11.4,2.5,11.1,3L8.6,8.2
	L2.9,9C2.6,9,2.4,9.1,2.3,9.3c-0.4,0.4-0.4,1,0,1.4l4.1,4l-1,5.7c0,0.2,0,0.4,0.1,0.6c0.3,0.5,0.9,0.7,1.4,0.4l5.1-2.7l5.1,2.7
	c0.1,0.1,0.3,0.1,0.5,0.1c0.1,0,0.1,0,0.2,0c0.5-0.1,0.9-0.6,0.8-1.2l-1-5.7l4.1-4C21.9,10.5,22,10.3,22,10.1z M15.8,13.6
	c-0.2,0.2-0.3,0.6-0.3,0.9l0.7,4.2l-3.8-2c-0.1-0.1-0.3-0.1-0.5-0.1V5.7l1.9,3.8c0.1,0.3,0.4,0.5,0.8,0.5l4.2,0.6L15.8,13.6z"/>
</svg>
