<?xml version="1.0" encoding="utf-8"?>
<!-- Generator: Adobe Illustrator 25.2.0, SVG Export Plug-In . SVG Version: 6.00 Build 0)  -->
<svg version="1.1" id="Layer_1" xmlns="http://www.w3.org/2000/svg" xmlns:xlink="http://www.w3.org/1999/xlink" x="0px" y="0px"
	 viewBox="0 0 50 50" style="enable-background:new 0 0 50 50;" xml:space="preserve">
<style type="text/css">
	.st0{fill:#FFFFFF;}
	.st1{fill:#ED1C24;}
</style>
<rect y="0" class="st0" width="50" height="50"/>
<path class="st1" d="M29.9,25.9c1.3-1,2.3-2.4,2.7-4c0.5-1.6,0.4-3.3-0.1-4.9c-0.5-1.6-1.6-2.9-2.9-3.9s-3-1.5-4.6-1.5
	s-3.3,0.5-4.6,1.5S18,15.5,17.4,17c-0.5,1.6-0.6,3.3-0.1,4.9c0.5,1.6,1.4,3,2.7,4c-2.2,0.9-4.2,2.4-5.7,4.3
	c-1.5,1.9-2.4,4.2-2.6,6.6c0,0.2,0,0.4,0,0.5c0,0.2,0.1,0.3,0.2,0.5c0.2,0.3,0.5,0.5,0.9,0.5c0.4,0,0.7-0.1,1-0.3
	c0.3-0.2,0.5-0.5,0.5-0.9c0.3-2.6,1.5-5,3.5-6.8c2-1.7,4.5-2.7,7.1-2.7s5.2,1,7.1,2.7c2,1.7,3.2,4.2,3.5,6.8c0,0.3,0.2,0.6,0.4,0.8
	c0.2,0.2,0.6,0.3,0.9,0.3h0.1c0.3,0,0.7-0.2,0.9-0.5c0.2-0.3,0.3-0.6,0.3-1c-0.3-2.4-1.2-4.7-2.7-6.6S32.2,26.8,29.9,25.9L29.9,25.9
	z M25,25c-1.1,0-2.1-0.3-3-0.9c-0.9-0.6-1.6-1.4-2-2.4c-0.4-1-0.5-2-0.3-3.1c0.2-1,0.7-2,1.5-2.7c0.7-0.7,1.7-1.3,2.7-1.5
	c1-0.2,2.1-0.1,3.1,0.3c1,0.4,1.8,1.1,2.4,2c0.6,0.9,0.9,1.9,0.9,3c0,1.4-0.6,2.8-1.6,3.8S26.4,25,25,25z"/>
</svg>
