<?xml version="1.0" encoding="utf-8"?>
<!-- Generator: Adobe Illustrator 25.2.0, SVG Export Plug-In . SVG Version: 6.00 Build 0)  -->
<svg version="1.1" id="Layer_1" xmlns="http://www.w3.org/2000/svg" xmlns:xlink="http://www.w3.org/1999/xlink" x="0px" y="0px"
	 viewBox="0 0 24 24" style="enable-background:new 0 0 24 24;" xml:space="preserve">
<style type="text/css">
	.st0{fill:#ED1C24;}
</style>
<path class="st0" d="M12,2c-1.9,0-3.8,0.6-5.5,1.6C4.9,4.7,3.6,6.2,2.9,8c-0.8,1.8-1,3.7-0.7,5.7c0.3,1.9,1.2,3.7,2.5,5.1l0,0
	c0.9,1,2.1,1.8,3.3,2.4c1.3,0.6,2.6,0.8,4,0.8s2.7-0.3,4-0.8c1.3-0.6,2.4-1.4,3.3-2.4l0,0c1.3-1.4,2.2-3.2,2.5-5.1
	c0.3-1.9,0.1-3.9-0.7-5.7c-0.8-1.8-2.1-3.3-3.7-4.4C15.8,2.6,13.9,2,12,2L12,2z M12,20c-2.1,0-4.1-0.8-5.6-2.2
	c0.5-1.1,1.2-2,2.2-2.7c1-0.7,2.2-1,3.3-1s2.4,0.4,3.3,1c1,0.7,1.8,1.6,2.2,2.7C16.1,19.2,14.1,20,12,20z M10,10
	c0-0.4,0.1-0.8,0.3-1.1c0.2-0.3,0.5-0.6,0.9-0.7C11.6,8,12,8,12.4,8c0.4,0.1,0.7,0.3,1,0.5c0.3,0.3,0.5,0.6,0.5,1
	c0.1,0.4,0,0.8-0.1,1.2c-0.2,0.4-0.4,0.7-0.7,0.9C12.8,11.9,12.4,12,12,12c-0.5,0-1-0.2-1.4-0.6C10.2,11,10,10.5,10,10z M18.9,16
	c-0.9-1.5-2.3-2.7-3.9-3.4c0.5-0.6,0.8-1.3,1-2.1c0.1-0.8,0-1.5-0.3-2.2c-0.3-0.7-0.8-1.3-1.5-1.7C13.5,6.2,12.8,6,12,6
	s-1.5,0.2-2.2,0.6C9.2,7,8.7,7.6,8.4,8.3C8,9,7.9,9.8,8,10.6c0.1,0.8,0.4,1.5,1,2.1c-1.6,0.7-3,1.9-3.9,3.4C4.4,14.8,4,13.4,4,12
	c0-2.1,0.8-4.2,2.3-5.7C7.8,4.8,9.9,4,12,4c2.1,0,4.2,0.8,5.7,2.3C19.2,7.8,20,9.9,20,12C20,13.4,19.6,14.8,18.9,16L18.9,16z"/>
</svg>
